<svg version="1.1" id="Layer_1" xmlns="http://www.w3.org/2000/svg" xmlns:xlink="http://www.w3.org/1999/xlink" x="0px" y="0px"
	 width="100%" viewBox="0 0 861 149" enable-background="new 0 0 861 149" xml:space="preserve">
<path fill="#000000" opacity="1.000000" stroke="none" 
	d="
M862.000000,132.000000 
	C862.000000,137.996353 862.000000,143.992722 862.000000,149.994537 
	C630.977356,150.000000 399.954712,150.000000 168.534409,149.669052 
	C173.018692,145.627808 175.483795,140.836395 175.036591,134.583755 
	C174.838730,131.817429 175.042114,129.022385 175.507080,126.178230 
	C177.449356,126.104073 178.961456,126.218086 180.444122,126.058502 
	C187.247681,125.326248 193.759232,123.499641 194.333923,115.211517 
	C194.838272,107.937805 195.324173,100.595917 194.887711,93.340118 
	C194.288849,83.384789 188.770630,75.381828 181.744797,68.972687 
	C175.773056,63.525127 172.161118,57.395687 169.834091,49.762409 
	C167.230225,41.221058 163.365173,33.064178 159.942169,24.549938 
	C159.641602,24.128910 159.398590,23.976328 159.099274,23.586594 
	C158.758209,22.837973 158.424255,22.404896 158.081406,21.953642 
	C158.072525,21.935465 158.032196,21.932159 158.011566,21.687225 
	C157.834717,21.125772 157.582840,20.937204 157.068710,20.580490 
	C152.034882,14.848059 146.220764,10.900305 138.940460,8.648108 
	C132.775452,6.874733 126.768295,5.512573 120.815514,3.944071 
	C117.825989,3.156359 114.935356,1.993311 112.000000,1.000001 
	C362.000000,1.000000 612.000000,1.000000 862.000000,1.000000 
	C862.000000,14.749527 862.000000,28.408722 861.585938,42.451607 
	C859.620667,42.559330 858.064148,42.023949 856.519226,42.055489 
	C851.662964,42.154652 846.811157,42.466953 841.618774,42.989159 
	C841.195801,64.278282 841.105103,85.274956 841.066345,106.271721 
	C841.065430,106.783310 841.642212,107.295959 841.919434,108.162964 
	C838.518433,111.025314 835.475281,114.307518 831.716309,115.897491 
	C819.632263,121.008904 804.006104,117.418777 802.666504,102.133446 
	C802.449219,97.446106 802.063110,93.182434 802.039673,88.916763 
	C801.965637,75.438133 802.060669,61.958576 801.990234,48.479904 
	C801.982361,46.963413 801.336487,45.450249 800.986450,43.974464 
	C800.986328,44.013390 801.064148,44.015205 800.854004,43.658104 
	C794.405945,42.047020 788.179077,41.098011 782.054443,44.445099 
	C781.958618,52.391609 781.843445,59.872715 781.856018,67.353607 
	C781.874939,78.575836 781.975220,89.798012 782.093201,101.019669 
	C782.096741,101.354996 782.685852,101.684166 782.999878,102.453781 
	C783.415405,114.560379 787.020508,124.757751 797.655823,130.861694 
	C812.205688,139.212234 826.882324,136.778458 841.554016,130.538086 
	C847.286194,134.640884 853.652832,133.371628 860.361877,131.943268 
	C861.125122,131.988052 861.562561,131.994034 862.000000,132.000000 
M664.943970,117.971497 
	C683.614380,118.047577 702.284851,118.123665 720.528687,118.828392 
	C720.700195,122.981415 720.730408,127.148827 721.151062,131.276474 
	C721.246094,132.208725 722.701477,133.744324 723.527832,133.742416 
	C730.000793,133.727386 736.472961,133.405350 743.687866,132.771072 
	C744.390808,127.886810 745.093750,123.002548 745.731873,118.568581 
	C750.337036,118.017441 754.818481,117.481110 759.947327,116.525681 
	C760.203552,110.819969 760.610168,105.112701 760.551270,99.410255 
	C760.542603,98.569160 758.370544,97.117798 757.128357,97.036728 
	C752.833008,96.756409 748.506287,96.957001 744.066956,96.110855 
	C744.040161,81.939674 744.474976,67.748306 743.856567,53.602985 
	C743.240051,39.499424 747.067749,25.360170 743.641724,10.451344 
	C736.450562,10.997212 729.595764,11.517551 722.356140,12.097943 
	C722.116943,12.241769 721.974487,12.451376 721.321289,13.086096 
	C719.868713,15.049201 718.392212,16.995148 716.967346,18.978182 
	C707.146729,32.645824 697.290833,46.288506 687.537109,60.003788 
	C678.644775,72.507835 669.866943,85.093307 660.349609,98.153854 
	C659.915588,103.189377 659.188354,108.223778 659.169189,113.260872 
	C659.159363,115.839333 659.826843,119.064140 664.943970,117.971497 
M382.020142,81.958298 
	C382.011536,97.522881 381.974243,113.087578 382.041473,128.651840 
	C382.047791,130.114578 382.713074,131.574478 383.870270,133.134491 
	C389.920258,133.086197 395.970215,133.037918 402.800629,132.597595 
	C402.847290,118.106247 402.893982,103.614891 402.987549,88.202782 
	C402.967865,85.373055 402.741943,82.526726 402.968109,79.716782 
	C403.586212,72.036751 410.952637,61.636559 420.773590,62.977894 
	C423.521576,63.353207 426.394135,63.166904 429.164001,62.845493 
	C430.166321,62.729187 431.583008,61.631516 431.869568,60.694012 
	C433.058350,56.804585 433.277710,52.512115 435.003967,48.920872 
	C437.135162,44.487133 434.811798,43.756737 431.570160,43.012707 
	C420.531097,40.479000 410.583160,42.126865 402.632874,50.919235 
	C402.061798,48.383907 401.569427,46.198063 400.733459,43.286400 
	C398.591125,42.928574 396.457306,42.360352 394.304047,42.273502 
	C392.248291,42.190586 390.119263,43.002357 388.115387,42.731983 
	C382.506348,41.975185 380.823944,43.153576 380.973907,48.882061 
	C381.254425,59.600670 381.728790,70.314209 382.020142,81.958298 
M262.977386,131.656448 
	C263.348053,132.121323 263.718689,132.586212 264.530731,133.065094 
	C264.530731,133.065094 264.966370,132.992950 265.368866,133.775360 
	C280.380676,133.842636 295.392456,133.918579 310.404327,133.937790 
	C310.882080,133.938400 311.360565,133.356537 312.622955,132.973373 
	C318.138275,131.992920 324.050049,131.946640 329.076263,129.813675 
	C336.667419,126.592262 344.551147,122.961128 350.677551,117.628159 
	C361.670380,108.059021 367.229858,95.218895 369.269470,80.566963 
	C371.356140,65.576851 369.821228,51.155079 362.859863,37.997578 
	C352.451355,18.324810 335.365936,7.846100 313.073303,7.024518 
	C297.488586,6.450151 281.864655,6.919773 266.258545,6.990015 
	C265.179169,6.994873 264.102295,7.557850 262.262024,8.317365 
	C262.184052,8.807343 262.038055,9.297288 262.037811,9.787308 
	C262.017792,49.011124 262.000244,88.234955 262.042786,127.458725 
	C262.044067,128.629410 262.683868,129.799423 262.977386,131.656448 
M465.077911,72.142792 
	C465.098480,66.328209 465.259125,60.509502 465.087982,54.700569 
	C464.982452,51.118069 464.370941,47.550480 463.668518,43.245312 
	C457.192932,43.245312 450.717346,43.245312 444.246155,43.245312 
	C443.899353,72.370354 443.537811,101.327209 443.286835,130.285004 
	C443.278900,131.202789 444.409332,132.130432 445.608978,133.639099 
	C450.072296,133.784821 454.534912,133.959793 458.999146,134.067657 
	C463.106415,134.166885 465.012238,132.016144 465.032532,127.066193 
	C465.008240,109.072395 464.983948,91.078598 465.077911,72.142792 
M638.804138,93.013245 
	C640.136169,92.994202 641.468140,92.976349 642.800171,92.955917 
	C649.982910,92.845718 649.987000,92.842255 649.986023,85.652245 
	C649.985657,82.987579 650.031189,80.321709 649.968262,77.658455 
	C649.573669,60.963116 637.754028,44.723820 619.413574,41.895691 
	C614.602722,41.153851 609.556091,41.698792 604.634705,41.965805 
	C593.360840,42.577477 584.169006,47.400402 577.565125,56.563915 
	C567.255310,70.869698 565.640808,86.824150 569.660828,103.541779 
	C572.171570,113.983124 577.192810,123.329208 586.375366,129.140091 
	C602.325500,139.233627 619.602722,139.333221 636.602356,132.363281 
	C648.533630,127.471367 647.619141,129.520172 640.933533,117.771576 
	C640.687378,117.339027 640.308838,116.972565 640.112122,116.522766 
	C638.719971,113.340149 636.771729,112.980225 633.355347,113.948532 
	C627.020203,115.744095 620.353577,118.034363 613.969299,117.659561 
	C598.769653,116.767242 591.896790,109.590012 589.948975,93.985016 
	C604.447327,93.997948 618.945801,94.038849 633.443848,93.981674 
	C634.937256,93.975784 636.428223,93.384491 638.804138,93.013245 
M548.823975,79.612038 
	C552.530334,71.186867 556.479553,62.858456 559.884277,54.313103 
	C564.617065,42.434200 567.085205,43.400078 552.803894,42.884388 
	C545.527405,42.621635 540.475037,44.136528 538.666382,51.844776 
	C538.154602,54.025833 537.099121,56.078987 536.296692,58.192230 
	C531.058594,71.987465 525.831970,85.787117 520.568298,99.572609 
	C520.022034,101.003265 519.258057,102.350800 518.297058,104.360191 
	C517.234680,103.030685 516.549438,102.504463 516.307251,101.821175 
	C511.264160,87.592590 506.566437,73.233780 501.194763,59.131432 
	C494.300232,41.031044 498.161743,43.106865 478.301392,43.032894 
	C477.968475,43.031654 477.635315,43.060589 477.302582,43.055683 
	C474.297211,43.011410 473.415741,44.435242 474.434692,47.186008 
	C474.895111,48.428841 475.305786,49.691509 475.805176,50.918243 
	C480.488312,62.422211 485.199799,73.914627 489.875427,85.421631 
	C495.251343,98.652222 501.504089,111.619858 505.630829,125.230804 
	C508.240143,133.836884 512.952087,134.539932 520.155762,134.233292 
	C524.392517,134.052963 526.805176,132.715393 528.288818,128.890747 
	C529.699158,125.255020 531.474670,121.762848 532.988464,118.165001 
	C538.307068,105.524231 543.582153,92.865128 548.823975,79.612038 
M459.783875,27.172409 
	C460.227692,26.947752 460.666321,26.712013 461.116150,26.500097 
	C466.920319,23.765692 468.132538,16.335331 465.877930,11.350620 
	C463.510681,6.116825 456.161102,3.961332 450.408783,5.477314 
	C445.822174,6.686088 442.985504,15.159902 444.906006,20.400175 
	C447.268768,26.847231 449.643921,28.030146 459.783875,27.172409 
z"/>
<path fill="#000000" opacity="1.000000" stroke="none" 
	d="
M1.000000,93.000000 
	C1.000000,62.407219 1.000000,31.814436 1.000000,1.000000 
	C30.687193,1.000000 60.374939,1.000000 90.508682,1.354163 
	C90.048233,2.033427 89.165192,2.471406 88.231476,2.665027 
	C82.804070,3.790489 77.364738,4.858510 71.516159,5.978622 
	C67.468185,6.992286 63.833500,7.973277 60.105759,8.721817 
	C59.644089,8.491991 59.275475,8.494617 58.753468,8.401879 
	C58.600075,8.306518 58.361465,8.577731 58.038803,8.668650 
	C50.077877,11.382569 44.247673,16.737289 40.144276,23.160551 
	C35.895367,29.811586 33.192944,37.492130 30.153475,44.862328 
	C27.227074,51.958359 25.511637,59.623295 18.870028,64.632225 
	C9.414517,71.763313 4.102612,81.421455 1.832154,93.188065 
	C1.369627,93.249779 1.184813,93.124886 1.000000,93.000000 
z"/>
<path fill="#000000" opacity="1.000000" stroke="none" 
	d="
M155.000000,150.000000 
	C117.979103,150.000000 80.958214,150.000000 43.567406,149.758301 
	C48.057491,146.863297 50.571766,142.633972 50.957012,137.243607 
	C51.204136,133.785812 50.944103,130.291748 51.178017,126.472855 
	C66.299362,126.030304 81.154099,125.928841 96.471634,125.902283 
	C113.922104,125.935829 130.909790,125.894463 148.164383,125.933609 
	C148.611389,126.060127 148.791473,126.106117 148.970032,126.608795 
	C148.539490,135.187256 148.384171,143.235794 154.912476,149.519821 
	C155.007584,149.611374 154.973694,149.836960 155.000000,150.000000 
z"/>
<path fill="#000000" opacity="1.000000" stroke="none" 
	d="
M31.000000,150.000000 
	C21.068869,150.000000 11.137738,150.000000 1.000000,150.000000 
	C1.000000,138.979965 1.000000,127.958641 1.301102,116.298958 
	C2.117376,116.092651 2.632548,116.524712 3.116059,117.320282 
	C5.931714,124.163902 8.215218,125.325592 17.429569,124.834808 
	C20.213812,125.304405 22.582155,125.709206 24.950497,126.571960 
	C25.278437,131.924454 25.078796,136.935654 26.126041,141.671112 
	C26.787144,144.660507 29.311441,147.237839 31.000000,150.000000 
z"/>
<path fill="#1D1E20" opacity="1.000000" stroke="none" 
	d="
M155.463181,150.000000 
	C154.973694,149.836960 155.007584,149.611374 154.912476,149.519821 
	C148.384171,143.235794 148.539490,135.187256 149.429321,126.496826 
	C158.281219,126.032249 166.672287,126.136322 175.063339,126.240387 
	C175.042114,129.022385 174.838730,131.817429 175.036591,134.583755 
	C175.483795,140.836395 173.018692,145.627808 168.068375,149.669052 
	C163.975449,150.000000 159.950912,150.000000 155.463181,150.000000 
z"/>
<path fill="#1D1E20" opacity="1.000000" stroke="none" 
	d="
M31.460636,150.000000 
	C29.311441,147.237839 26.787144,144.660507 26.126041,141.671112 
	C25.078796,136.935654 25.278437,131.924454 25.416851,126.484428 
	C33.875118,125.978516 41.867023,126.018089 49.941082,126.289146 
	C50.256386,126.808876 50.552444,126.906647 50.911411,126.813950 
	C50.944103,130.291748 51.204136,133.785812 50.957012,137.243607 
	C50.571766,142.633972 48.057491,146.863297 43.098747,149.758301 
	C39.307091,150.000000 35.614182,150.000000 31.460636,150.000000 
z"/>
<path fill="#2C6089" opacity="1.000000" stroke="none" 
	d="
M71.929443,5.945949 
	C77.364738,4.858510 82.804070,3.790489 88.231476,2.665027 
	C89.165192,2.471406 90.048233,2.033427 90.977341,1.354163 
	C97.687645,1.000000 104.375290,1.000000 111.531464,1.000001 
	C114.935356,1.993311 117.825989,3.156359 120.815514,3.944071 
	C126.768295,5.512573 132.775452,6.874733 138.662201,8.866863 
	C137.606445,9.403071 136.638855,9.479836 135.692474,9.371429 
	C131.345383,8.873479 127.002258,8.338938 122.662682,7.778984 
	C121.862862,7.675779 121.091629,7.367950 120.297585,7.200052 
	C116.781723,6.456635 113.260956,5.102006 109.744522,5.109894 
	C97.138939,5.138173 84.534386,5.629626 71.929443,5.945949 
z"/>
<path fill="#B9B9BC" opacity="1.000000" stroke="none" 
	d="
M862.000000,131.531342 
	C861.562561,131.994034 861.125122,131.988052 860.516235,131.556778 
	C860.525879,129.525955 860.860413,127.920876 860.865173,126.314835 
	C860.942261,100.216545 860.977539,74.118126 861.265015,47.931942 
	C861.671814,47.896099 861.835876,47.948048 862.000000,48.000000 
	C862.000000,75.687561 862.000000,103.375122 862.000000,131.531342 
z"/>
<path fill="#2C6089" opacity="1.000000" stroke="none" 
	d="
M3.147720,116.956764 
	C2.632548,116.524712 2.117376,116.092651 1.301102,115.830299 
	C1.000000,113.299965 1.000000,110.599937 1.325546,107.280029 
	C1.434061,105.106773 1.217031,103.553383 1.000000,102.000000 
	C1.000000,99.299965 1.000000,96.599937 1.000000,93.449951 
	C1.184813,93.124886 1.369627,93.249779 2.131894,93.240280 
	C3.461465,93.404091 4.213581,93.702286 4.974191,94.435364 
	C4.980224,100.248024 4.977765,105.625809 4.754750,111.282158 
	C4.072036,113.359406 3.609878,115.158089 3.147720,116.956764 
z"/>
<path fill="#6E6D6E" opacity="1.000000" stroke="none" 
	d="
M862.000000,47.583336 
	C861.835876,47.948048 861.671814,47.896099 861.160645,47.534180 
	C859.554749,46.148888 858.349854,44.233009 857.027466,44.148209 
	C852.105164,43.832569 847.144348,44.118515 842.133667,43.808838 
	C842.032227,43.191593 841.994934,42.944157 841.957581,42.696724 
	C846.811157,42.466953 851.662964,42.154652 856.519226,42.055489 
	C858.064148,42.023949 859.620667,42.559330 861.585938,42.917648 
	C862.000000,44.388889 862.000000,45.777779 862.000000,47.583336 
z"/>
<path fill="#B6D7F2" opacity="1.000000" stroke="none" 
	d="
M1.000000,102.416664 
	C1.217031,103.553383 1.434061,105.106773 1.325546,106.830078 
	C1.000000,105.611107 1.000000,104.222221 1.000000,102.416664 
z"/>
<path fill="#1F1D1D" opacity="1.000000" stroke="none" 
	d="
M264.966370,132.992950 
	C264.966370,132.992950 264.530731,133.065094 264.317688,132.631226 
	C263.899292,131.669189 263.693970,131.141022 263.460449,130.227234 
	C263.368347,102.785995 263.317230,75.730362 263.235138,48.674812 
	C263.193878,35.070217 263.096344,21.465786 263.024261,7.861280 
	C264.102295,7.557850 265.179169,6.994873 266.258545,6.990015 
	C281.864655,6.919773 297.488586,6.450151 313.073303,7.024518 
	C335.365936,7.846100 352.451355,18.324810 362.859863,37.997578 
	C369.821228,51.155079 371.356140,65.576851 369.269470,80.566963 
	C367.229858,95.218895 361.670380,108.059021 350.677551,117.628159 
	C344.551147,122.961128 336.667419,126.592262 329.076263,129.813675 
	C324.050049,131.946640 318.138275,131.992920 311.771912,133.011185 
	C295.602722,133.030304 280.284546,133.011627 264.966370,132.992950 
M284.427429,114.648285 
	C292.242188,114.511192 300.056915,114.374107 308.267334,113.755310 
	C311.325653,113.248932 314.382507,112.733788 317.442505,112.237755 
	C328.313263,110.475571 335.912384,103.862755 341.799927,95.168091 
	C349.231628,84.193069 348.897675,71.521065 347.531464,59.261501 
	C346.369690,48.836090 341.059998,39.556847 332.060577,33.801056 
	C326.353699,30.151115 319.354401,28.521994 312.178986,25.688316 
	C302.606598,25.688316 293.034241,25.688316 283.151276,25.688316 
	C283.151276,38.739311 283.151276,51.853306 283.001587,65.898460 
	C282.997131,80.633881 282.965393,95.369431 283.035126,110.104500 
	C283.041351,111.421188 283.706116,112.734756 283.950897,114.052071 
	C283.950897,114.052071 283.942871,113.938232 284.427429,114.648285 
z"/>
<path fill="#1F1E1F" opacity="1.000000" stroke="none" 
	d="
M589.023132,94.119675 
	C591.896790,109.590012 598.769653,116.767242 613.969299,117.659561 
	C620.353577,118.034363 627.020203,115.744095 633.355347,113.948532 
	C636.771729,112.980225 638.719971,113.340149 640.112122,116.522766 
	C640.308838,116.972565 640.687378,117.339027 640.933533,117.771576 
	C647.619141,129.520172 648.533630,127.471367 636.602356,132.363281 
	C619.602722,139.333221 602.325500,139.233627 586.375366,129.140091 
	C577.192810,123.329208 572.171570,113.983124 569.660828,103.541779 
	C565.640808,86.824150 567.255310,70.869698 577.565125,56.563915 
	C584.169006,47.400402 593.360840,42.577477 604.634705,41.965805 
	C609.556091,41.698792 614.602722,41.153851 619.413574,41.895691 
	C637.754028,44.723820 649.573669,60.963116 649.968262,77.658455 
	C650.031189,80.321709 649.985657,82.987579 649.986023,85.652245 
	C649.987000,92.842255 649.982910,92.845718 642.800171,92.955917 
	C641.468140,92.976349 640.136169,92.994202 637.897583,93.013474 
	C622.163879,93.003777 607.336670,92.968407 592.509949,93.033142 
	C591.346130,93.038223 590.185303,93.741104 589.023132,94.119675 
M592.756226,69.967094 
	C591.899231,71.343987 590.580566,72.644325 590.335449,74.122665 
	C590.148987,75.247253 591.306213,77.677559 591.899658,77.688568 
	C603.472595,77.903214 615.054138,77.972755 626.621582,77.641815 
	C627.706177,77.610786 629.960449,73.941833 629.543518,73.256325 
	C627.046082,69.150208 624.702942,64.092018 620.853394,61.842613 
	C612.486511,56.953548 598.158936,60.049934 592.756226,69.967094 
z"/>
<path fill="#1E1C1C" opacity="1.000000" stroke="none" 
	d="
M842.197937,44.178646 
	C847.144348,44.118515 852.105164,43.832569 857.027466,44.148209 
	C858.349854,44.233009 859.554749,46.148888 860.917969,47.621975 
	C860.977539,74.118126 860.942261,100.216545 860.865173,126.314835 
	C860.860413,127.920876 860.525879,129.525955 860.190430,131.517975 
	C853.652832,133.371628 847.286194,134.640884 841.554016,130.538086 
	C826.882324,136.778458 812.205688,139.212234 797.655823,130.861694 
	C787.020508,124.757751 783.415405,114.560379 783.033447,101.984970 
	C783.093628,82.081848 783.118103,63.085121 783.598633,44.038486 
	C789.724487,43.997456 795.394287,44.006332 801.064148,44.015205 
	C801.064148,44.015205 800.986328,44.013390 800.973938,44.447182 
	C801.010132,61.795109 801.000366,78.709854 801.175537,95.622681 
	C801.199585,97.938744 802.144775,100.245262 802.663574,102.556198 
	C804.006104,117.418777 819.632263,121.008904 831.716309,115.897491 
	C835.475281,114.307518 838.518433,111.025314 841.922729,107.706772 
	C842.036804,85.990036 842.117371,65.084343 842.197937,44.178646 
z"/>
<path fill="#201F1F" opacity="1.000000" stroke="none" 
	d="
M548.848877,79.912514 
	C543.582153,92.865128 538.307068,105.524231 532.988464,118.165001 
	C531.474670,121.762848 529.699158,125.255020 528.288818,128.890747 
	C526.805176,132.715393 524.392517,134.052963 520.155762,134.233292 
	C512.952087,134.539932 508.240143,133.836884 505.630829,125.230804 
	C501.504089,111.619858 495.251343,98.652222 489.875427,85.421631 
	C485.199799,73.914627 480.488312,62.422211 475.805176,50.918243 
	C475.305786,49.691509 474.895111,48.428841 474.434692,47.186008 
	C473.415741,44.435242 474.297211,43.011410 477.302582,43.055683 
	C477.635315,43.060589 477.968475,43.031654 478.301392,43.032894 
	C498.161743,43.106865 494.300232,41.031044 501.194763,59.131432 
	C506.566437,73.233780 511.264160,87.592590 516.307251,101.821175 
	C516.549438,102.504463 517.234680,103.030685 518.297058,104.360191 
	C519.258057,102.350800 520.022034,101.003265 520.568298,99.572609 
	C525.831970,85.787117 531.058594,71.987465 536.296692,58.192230 
	C537.099121,56.078987 538.154602,54.025833 538.666382,51.844776 
	C540.475037,44.136528 545.527405,42.621635 552.803894,42.884388 
	C567.085205,43.400078 564.617065,42.434200 559.884277,54.313103 
	C556.479553,62.858456 552.530334,71.186867 548.848877,79.912514 
z"/>
<path fill="#1F1F1E" opacity="1.000000" stroke="none" 
	d="
M401.077087,44.012215 
	C401.569427,46.198063 402.061798,48.383907 402.632874,50.919235 
	C410.583160,42.126865 420.531097,40.479000 431.570160,43.012707 
	C434.811798,43.756737 437.135162,44.487133 435.003967,48.920872 
	C433.277710,52.512115 433.058350,56.804585 431.869568,60.694012 
	C431.583008,61.631516 430.166321,62.729187 429.164001,62.845493 
	C426.394135,63.166904 423.521576,63.353207 420.773590,62.977894 
	C410.952637,61.636559 403.586212,72.036751 402.968109,79.716782 
	C402.741943,82.526726 402.967865,85.373055 402.574188,88.842773 
	C402.113953,103.985054 402.067078,118.487343 402.020203,132.989624 
	C395.970215,133.037918 389.920258,133.086197 383.564575,132.621475 
	C383.142456,115.082016 383.026031,98.055565 382.987183,80.564148 
	C383.064728,68.114708 383.064728,56.130241 383.064728,44.012215 
	C389.540100,44.012215 395.308594,44.012215 401.077087,44.012215 
z"/>
<path fill="#17629D" opacity="1.000000" stroke="none" 
	d="
M71.516159,5.978621 
	C84.534386,5.629626 97.138939,5.138173 109.744522,5.109894 
	C113.260956,5.102006 116.781723,6.456635 120.297585,7.200052 
	C121.091629,7.367950 121.862862,7.675779 122.662682,7.778984 
	C127.002258,8.338938 131.345383,8.873479 135.692474,9.371429 
	C136.638855,9.479836 137.606445,9.403071 138.842529,9.192835 
	C146.220764,10.900305 152.034882,14.848059 157.140533,20.793753 
	C157.540451,21.571123 157.758209,21.780806 158.032196,21.932159 
	C158.032196,21.932159 158.072525,21.935465 158.110016,22.241219 
	C158.467133,22.998693 158.786758,23.450417 159.106369,23.902140 
	C159.398590,23.976328 159.641602,24.128910 159.905121,24.922531 
	C159.946609,25.982855 159.918381,26.480532 159.573883,26.888924 
	C154.993652,22.612984 150.729706,18.426332 146.840683,14.607825 
	C137.618729,16.125912 128.787872,17.579615 119.570297,19.104187 
	C111.441856,19.120649 103.696747,18.895941 95.959244,19.050945 
	C83.739471,19.295740 71.185501,19.249928 61.001835,27.189373 
	C56.423889,30.758450 51.621460,35.716370 50.017902,40.986439 
	C48.142143,47.151123 46.541718,53.010155 41.754517,58.402569 
	C43.882057,59.963196 45.940395,61.473057 48.034622,63.369347 
	C49.328789,64.506577 50.515991,65.440292 51.862671,65.963608 
	C53.699562,66.677414 55.658001,67.078430 57.564327,67.613556 
	C57.512054,68.223526 57.459778,68.833488 57.407501,69.443451 
	C52.470974,69.790199 47.534447,70.136948 42.597919,70.483696 
	C42.582554,70.860092 42.567192,71.236496 42.551826,71.612900 
	C44.664776,72.361267 46.777725,73.109634 48.890675,73.857994 
	C48.653198,74.634087 48.415718,75.410187 48.178242,76.186279 
	C45.800232,75.388199 42.319607,75.317841 41.231171,73.668663 
	C35.940109,65.651749 37.278755,57.483974 42.357468,49.209194 
	C40.177589,49.302601 38.364124,49.676514 36.818466,50.533459 
	C34.452602,51.845135 32.271370,53.489826 30.069075,54.630707 
	C32.084457,49.845676 34.042530,45.423096 36.297775,41.174316 
	C38.407917,41.929661 40.220894,42.511208 42.033867,43.092754 
	C42.100620,40.913445 42.577827,38.636337 42.090057,36.589149 
	C41.763988,35.220657 40.065807,34.179096 39.042633,32.638863 
	C40.733051,29.270081 41.974052,25.938898 44.095390,23.321093 
	C46.468018,20.393175 49.746960,18.219296 52.427750,15.515277 
	C54.564381,13.360126 56.395000,10.901589 58.361465,8.577730 
	C58.361465,8.577731 58.600075,8.306518 59.060303,8.560362 
	C59.746624,8.860893 59.972721,8.907580 60.198814,8.954268 
	C63.833500,7.973277 67.468185,6.992286 71.516159,5.978621 
z"/>
<path fill="#212120" opacity="1.000000" stroke="none" 
	d="
M465.001495,128.003555 
	C465.012238,132.016144 463.106415,134.166885 458.999146,134.067657 
	C454.534912,133.959793 450.072296,133.784821 445.311523,132.873962 
	C445.014038,102.902161 445.014038,73.695496 445.014038,43.976200 
	C451.784912,43.976200 457.885742,43.976200 463.986572,43.976196 
	C464.370941,47.550480 464.982452,51.118069 465.087982,54.700569 
	C465.259125,60.509502 465.098480,66.328209 464.604889,72.758865 
	C463.985260,91.037102 463.826813,108.699211 463.747589,126.361664 
	C463.745148,126.907074 464.565002,127.456169 465.001495,128.003555 
z"/>
<path fill="#33658D" opacity="1.000000" stroke="none" 
	d="
M159.890137,26.978212 
	C159.918381,26.480532 159.946609,25.982855 160.011902,25.112583 
	C163.365173,33.064178 167.230225,41.221058 169.834091,49.762409 
	C172.161118,57.395687 175.773056,63.525127 181.744797,68.972687 
	C188.770630,75.381828 194.288849,83.384789 194.887711,93.340118 
	C195.324173,100.595917 194.838272,107.937805 194.333923,115.211517 
	C193.759232,123.499641 187.247681,125.326248 180.444122,126.058502 
	C178.961456,126.218086 177.449356,126.104073 175.507080,126.178238 
	C166.672287,126.136322 158.281219,126.032249 149.430862,126.040146 
	C148.791473,126.106117 148.611389,126.060127 147.878876,125.634026 
	C130.223846,125.229515 113.121246,125.205101 95.552864,125.116608 
	C89.078468,124.968307 83.069870,124.884094 77.316277,124.615074 
	C78.395172,124.277725 79.219063,124.125168 80.502495,123.967712 
	C90.350769,123.963280 99.740303,124.034332 109.127808,123.927345 
	C112.584221,123.887947 116.031868,123.305893 119.490738,123.193230 
	C123.291840,123.069412 127.101524,123.238663 130.907013,123.212975 
	C136.602097,123.174545 142.296768,123.077377 148.370117,123.012939 
	C149.505203,123.039948 150.261795,123.059189 151.121307,123.182770 
	C151.224213,123.287117 151.633118,123.342323 151.633118,123.342323 
	C151.633118,123.342323 151.977814,123.089706 152.445663,123.076141 
	C160.265244,123.362480 167.616989,123.662384 175.407913,123.972389 
	C178.553604,123.677513 181.260086,123.372536 184.224243,122.851509 
	C186.955185,119.808380 191.143295,117.236519 191.608521,114.110588 
	C193.762466,99.637955 193.462189,85.361092 181.840759,73.687576 
	C178.931656,70.563278 175.527313,68.113098 173.606018,64.802299 
	C170.662949,59.730762 168.419403,54.179531 166.467392,48.625099 
	C163.969345,41.516880 162.055649,34.203300 159.890137,26.978212 
z"/>
<path fill="#356792" opacity="1.000000" stroke="none" 
	d="
M661.038574,97.642883 
	C669.866943,85.093307 678.644775,72.507835 687.537109,60.003788 
	C697.290833,46.288506 707.146729,32.645824 716.967346,18.978182 
	C718.392212,16.995148 719.868713,15.049201 721.687439,13.222900 
	C722.336853,13.926378 722.620117,14.493052 722.743286,15.346733 
	C720.023560,19.493294 717.473999,23.359552 714.901062,27.210178 
	C712.940308,30.144642 710.949890,33.059258 708.664124,36.134541 
	C707.221313,37.847485 706.086975,39.408585 704.727051,41.169167 
	C703.997314,42.238312 703.493347,43.107975 702.700317,44.148552 
	C700.937927,46.545544 699.464600,48.771618 697.708496,51.176941 
	C696.921021,52.534969 696.416321,53.713749 695.571838,55.011665 
	C692.716553,58.581169 690.151917,61.997070 687.697632,65.490448 
	C684.525085,70.006134 681.516846,74.638397 678.299194,79.120911 
	C674.168396,84.875565 669.871094,90.510338 665.699341,96.235939 
	C661.934753,101.402878 662.618958,107.241104 663.641724,112.966507 
	C663.836182,114.054932 665.799011,115.630402 666.940430,115.625748 
	C682.869507,115.560776 698.797241,115.205605 714.726501,115.093254 
	C716.486389,115.080849 718.253784,116.127960 719.555420,116.770691 
	C700.741333,116.961990 682.389648,117.066269 663.630005,117.085121 
	C662.507812,115.614281 661.250916,114.257179 661.176941,112.838371 
	C660.913330,107.784546 661.052124,102.709732 661.038574,97.642883 
z"/>
<path fill="#1F1F1F" opacity="1.000000" stroke="none" 
	d="
M459.459717,27.329723 
	C449.643921,28.030146 447.268768,26.847231 444.906006,20.400175 
	C442.985504,15.159902 445.822174,6.686088 450.408783,5.477314 
	C456.161102,3.961332 463.510681,6.116825 465.877930,11.350620 
	C468.132538,16.335331 466.920319,23.765692 461.116150,26.500097 
	C460.666321,26.712013 460.227692,26.947752 459.459717,27.329723 
z"/>
<path fill="#6F97B9" opacity="1.000000" stroke="none" 
	d="
M722.740967,12.037891 
	C729.595764,11.517551 736.450562,10.997212 743.641724,10.451344 
	C747.067749,25.360170 743.240051,39.499424 743.856567,53.602985 
	C744.474976,67.748306 744.040161,81.939674 744.065674,96.449371 
	C744.064392,96.787880 743.863892,96.891731 743.628845,96.824860 
	C743.133728,96.545593 742.932678,96.287231 742.835754,95.517487 
	C742.939453,68.929863 742.934448,42.807190 743.127380,16.685982 
	C743.155457,12.897792 741.843384,11.727490 738.207642,11.908981 
	C733.062744,12.165803 727.897522,12.014661 722.740967,12.037891 
z"/>
<path fill="#356792" opacity="1.000000" stroke="none" 
	d="
M742.945435,133.178009 
	C736.472961,133.405350 730.000793,133.727386 723.527832,133.742416 
	C722.701477,133.744324 721.246094,132.208725 721.151062,131.276474 
	C720.730408,127.148827 720.700195,122.981415 720.821045,118.210571 
	C721.131165,117.384254 721.148926,117.175758 721.544861,117.011986 
	C722.639221,119.037056 723.713623,120.965744 724.007996,123.006935 
	C725.116516,130.692780 729.501526,132.944962 736.883911,130.241531 
	C741.414917,128.582275 743.069458,126.539757 740.906433,121.985519 
	C739.691833,119.428185 740.909912,117.885040 743.456787,117.664406 
	C743.273682,123.137497 743.109558,128.157745 742.945435,133.178009 
z"/>
<path fill="#285E8A" opacity="1.000000" stroke="none" 
	d="
M722.548584,12.067917 
	C727.897522,12.014661 733.062744,12.165803 738.207642,11.908981 
	C741.843384,11.727490 743.155457,12.897792 743.127380,16.685982 
	C742.934448,42.807190 742.939453,68.929863 742.500854,95.369492 
	C742.073914,92.013458 741.988159,88.340019 741.986511,84.666550 
	C741.977356,63.696796 742.008972,42.726974 741.950745,21.757395 
	C741.946350,20.164846 741.352478,18.573935 740.989136,16.583897 
	C739.500122,15.457489 738.049072,14.104274 736.610107,14.116989 
	C732.038757,14.157383 727.471924,14.706963 722.903320,15.059736 
	C722.620117,14.493052 722.336853,13.926378 721.991211,13.043235 
	C721.974487,12.451376 722.116943,12.241769 722.548584,12.067917 
z"/>
<path fill="#356792" opacity="1.000000" stroke="none" 
	d="
M744.127930,96.881195 
	C748.506287,96.957001 752.833008,96.756409 757.128357,97.036728 
	C758.370544,97.117798 760.542603,98.569160 760.551270,99.410255 
	C760.610168,105.112701 760.203552,110.819969 759.140076,116.692657 
	C754.539124,116.794289 750.745422,116.728935 747.108276,116.355179 
	C753.512939,114.289337 759.522888,112.421051 756.614075,103.645927 
	C756.295471,102.684914 757.206543,101.316231 757.807068,99.237495 
	C755.244202,99.387161 753.309387,99.882652 751.557190,99.512871 
	C748.925537,98.957497 746.421936,97.795685 743.863892,96.891739 
	C743.863892,96.891731 744.064392,96.787880 744.127930,96.881195 
z"/>
<path fill="#CAC9C8" opacity="1.000000" stroke="none" 
	d="
M262.643127,8.089323 
	C263.096344,21.465786 263.193878,35.070217 263.235138,48.674812 
	C263.317230,75.730362 263.368347,102.785995 263.280823,130.233200 
	C263.129395,130.624802 263.025940,130.969742 263.025940,130.969742 
	C262.683868,129.799423 262.044067,128.629410 262.042786,127.458725 
	C262.000244,88.234955 262.017792,49.011124 262.037811,9.787308 
	C262.038055,9.297288 262.184052,8.807343 262.643127,8.089323 
z"/>
<path fill="#A2A2A1" opacity="1.000000" stroke="none" 
	d="
M463.827545,43.610756 
	C457.885742,43.976200 451.784912,43.976200 445.014038,43.976200 
	C445.014038,73.695496 445.014038,102.902161 445.011566,132.581146 
	C444.409332,132.130432 443.278900,131.202789 443.286835,130.285004 
	C443.537811,101.327209 443.899353,72.370354 444.246155,43.245312 
	C450.717346,43.245312 457.192932,43.245312 463.827545,43.610756 
z"/>
<path fill="#8E8E8B" opacity="1.000000" stroke="none" 
	d="
M400.905273,43.649307 
	C395.308594,44.012215 389.540100,44.012215 383.064728,44.012215 
	C383.064728,56.130241 383.064728,68.114708 382.790405,80.551590 
	C382.516052,81.003998 382.122528,81.029854 382.122498,81.029854 
	C381.728790,70.314209 381.254425,59.600670 380.973907,48.882061 
	C380.823944,43.153576 382.506348,41.975185 388.115387,42.731983 
	C390.119263,43.002357 392.248291,42.190586 394.304047,42.273502 
	C396.457306,42.360352 398.591125,42.928574 400.905273,43.649307 
z"/>
<path fill="#6E6D6E" opacity="1.000000" stroke="none" 
	d="
M783.142578,44.088394 
	C783.118103,63.085121 783.093628,82.081848 783.035583,101.547394 
	C782.685852,101.684166 782.096741,101.354996 782.093201,101.019669 
	C781.975220,89.798012 781.874939,78.575836 781.856018,67.353607 
	C781.843445,59.872715 781.958618,52.391609 782.316650,44.476246 
	C782.791931,44.057392 782.967224,44.072895 783.142578,44.088394 
z"/>
<path fill="#818185" opacity="1.000000" stroke="none" 
	d="
M802.666504,102.133446 
	C802.144775,100.245262 801.199585,97.938744 801.175537,95.622681 
	C801.000366,78.709854 801.010132,61.795109 800.973999,44.408257 
	C801.336487,45.450249 801.982361,46.963413 801.990234,48.479904 
	C802.060669,61.958576 801.965637,75.438133 802.039673,88.916763 
	C802.063110,93.182434 802.449219,97.446106 802.666504,102.133446 
z"/>
<path fill="#A2A2A1" opacity="1.000000" stroke="none" 
	d="
M842.133667,43.808838 
	C842.117371,65.084343 842.036804,85.990036 841.952881,107.351929 
	C841.642212,107.295959 841.065430,106.783310 841.066345,106.271721 
	C841.105103,85.274956 841.195801,64.278282 841.618774,42.989159 
	C841.994934,42.944157 842.032227,43.191593 842.133667,43.808838 
z"/>
<path fill="#B6D7F2" opacity="1.000000" stroke="none" 
	d="
M721.166748,116.967255 
	C721.148926,117.175758 721.131165,117.384254 721.034363,117.896255 
	C702.284851,118.123665 683.614380,118.047577 664.485718,117.735855 
	C664.027405,117.500221 664.037903,117.170555 664.037903,117.170555 
	C682.389648,117.066269 700.741333,116.961990 719.838013,116.860199 
	C720.777588,116.897552 720.972168,116.932404 721.166748,116.967255 
z"/>
<path fill="#CAC9C8" opacity="1.000000" stroke="none" 
	d="
M465.017029,127.534874 
	C464.565002,127.456169 463.745148,126.907074 463.747589,126.361664 
	C463.826813,108.699211 463.985260,91.037102 464.545776,73.229874 
	C464.983948,91.078598 465.008240,109.072395 465.017029,127.534874 
z"/>
<path fill="#AAABAC" opacity="1.000000" stroke="none" 
	d="
M382.071350,81.494080 
	C382.122528,81.029854 382.516052,81.003998 382.712830,81.016556 
	C383.026031,98.055565 383.142456,115.082016 383.165649,132.572083 
	C382.713074,131.574478 382.047791,130.114578 382.041473,128.651840 
	C381.974243,113.087578 382.011536,97.522881 382.071350,81.494080 
z"/>
<path fill="#C1C1C6" opacity="1.000000" stroke="none" 
	d="
M589.486084,94.052353 
	C590.185303,93.741104 591.346130,93.038223 592.509949,93.033142 
	C607.336670,92.968407 622.163879,93.003777 637.455688,93.039261 
	C636.428223,93.384491 634.937256,93.975784 633.443848,93.981674 
	C618.945801,94.038849 604.447327,93.997948 589.486084,94.052353 
z"/>
<path fill="#CAC9C8" opacity="1.000000" stroke="none" 
	d="
M265.167603,133.384155 
	C280.284546,133.011627 295.602722,133.030304 311.379822,133.047607 
	C311.360565,133.356537 310.882080,133.938400 310.404327,133.937790 
	C295.392456,133.918579 280.380676,133.842636 265.167603,133.384155 
z"/>
<path fill="#A8C4DC" opacity="1.000000" stroke="none" 
	d="
M746.951721,116.663582 
	C750.745422,116.728935 754.539124,116.794289 758.816406,116.902206 
	C754.818481,117.481110 750.337036,118.017441 745.731873,118.568581 
	C745.093750,123.002548 744.390808,127.886810 743.316650,132.974533 
	C743.109558,128.157745 743.273682,123.137497 743.792847,117.566032 
	C745.082520,116.897736 746.017090,116.780663 746.951721,116.663582 
z"/>
<path fill="#C1C1C6" opacity="1.000000" stroke="none" 
	d="
M402.410400,132.793610 
	C402.067078,118.487343 402.113953,103.985054 402.550720,89.303162 
	C402.893982,103.614891 402.847290,118.106247 402.410400,132.793610 
z"/>
<path fill="#A8C4DC" opacity="1.000000" stroke="none" 
	d="
M663.630005,117.085121 
	C664.037903,117.170555 664.027405,117.500221 664.022949,117.665070 
	C659.826843,119.064140 659.159363,115.839333 659.169189,113.260872 
	C659.188354,108.223778 659.915588,103.189377 660.694092,97.898361 
	C661.052124,102.709732 660.913330,107.784546 661.176941,112.838371 
	C661.250916,114.257179 662.507812,115.614281 663.630005,117.085121 
z"/>
<path fill="#818185" opacity="1.000000" stroke="none" 
	d="
M783.598633,44.038486 
	C782.967224,44.072895 782.791931,44.057392 782.354492,44.010742 
	C788.179077,41.098011 794.405945,42.047020 800.854004,43.658108 
	C795.394287,44.006332 789.724487,43.997456 783.598633,44.038486 
z"/>
<path fill="#646364" opacity="1.000000" stroke="none" 
	d="
M263.001648,131.313095 
	C263.025940,130.969742 263.129395,130.624802 263.309021,130.618835 
	C263.693970,131.141022 263.899292,131.669189 264.096985,132.624207 
	C263.718689,132.586212 263.348053,132.121323 263.001648,131.313095 
z"/>
<path fill="#1864A0" opacity="1.000000" stroke="none" 
	d="
M159.099274,23.586594 
	C158.786758,23.450417 158.467133,22.998693 158.118896,22.259396 
	C158.424255,22.404896 158.758209,22.837973 159.099274,23.586594 
z"/>
<path fill="#1864A0" opacity="1.000000" stroke="none" 
	d="
M158.011566,21.687225 
	C157.758209,21.780806 157.540451,21.571123 157.307098,21.089851 
	C157.582840,20.937204 157.834717,21.125772 158.011566,21.687225 
z"/>
<path fill="#2F628F" opacity="1.000000" stroke="none" 
	d="
M58.038803,8.668650 
	C56.395000,10.901589 54.564381,13.360126 52.427750,15.515277 
	C49.746960,18.219296 46.468018,20.393175 44.095390,23.321093 
	C41.974052,25.938898 40.733051,29.270081 38.746864,32.834969 
	C37.593609,35.922470 36.797108,38.461494 36.000610,41.000519 
	C34.042530,45.423096 32.084457,49.845676 30.043491,55.011780 
	C28.813763,58.023251 28.253843,61.147217 26.415989,62.407326 
	C19.380116,67.231400 14.209970,73.593193 9.947389,80.750389 
	C8.477840,83.217873 7.939870,86.240158 6.974478,89.244186 
	C6.972607,89.479370 6.969904,89.949730 6.752579,90.188080 
	C6.012069,91.617790 5.488884,92.809135 4.965698,94.000488 
	C4.213581,93.702286 3.461465,93.404091 2.409607,93.053680 
	C4.102612,81.421455 9.414517,71.763313 18.870028,64.632225 
	C25.511637,59.623295 27.227074,51.958359 30.153475,44.862328 
	C33.192944,37.492130 35.895367,29.811586 40.144276,23.160551 
	C44.247673,16.737289 50.077877,11.382569 58.038803,8.668650 
z"/>
<path fill="#2F628F" opacity="1.000000" stroke="none" 
	d="
M60.105759,8.721816 
	C59.972721,8.907580 59.746624,8.860893 59.213696,8.655724 
	C59.275475,8.494617 59.644089,8.491991 60.105759,8.721816 
z"/>
<path fill="#ADCCE8" opacity="1.000000" stroke="none" 
	d="
M96.018654,125.180695 
	C113.121246,125.205101 130.223846,125.229515 147.611938,125.553513 
	C130.909790,125.894463 113.922104,125.935829 96.474304,125.740616 
	C96.014175,125.504036 96.018654,125.180695 96.018654,125.180695 
z"/>
<path fill="#A8C4DC" opacity="1.000000" stroke="none" 
	d="
M95.552864,125.116608 
	C96.018654,125.180695 96.014175,125.504036 96.011505,125.665703 
	C81.154099,125.928841 66.299362,126.030304 51.178017,126.472855 
	C50.552444,126.906647 50.256386,126.808876 50.239338,125.972359 
	C57.959244,125.216293 65.463043,125.008499 73.373749,124.860321 
	C74.874191,124.879921 75.967728,124.839897 77.061264,124.799881 
	C83.069870,124.884094 89.078468,124.968307 95.552864,125.116608 
z"/>
<path fill="#33658D" opacity="1.000000" stroke="none" 
	d="
M72.966850,124.800697 
	C65.463043,125.008499 57.959244,125.216293 50.157185,125.740883 
	C41.867023,126.018089 33.875118,125.978516 25.416855,126.026474 
	C22.582155,125.709206 20.213812,125.304405 17.428492,124.545944 
	C17.010965,123.807083 17.010418,123.421867 17.476290,123.026741 
	C23.295567,123.016510 28.648422,123.016197 34.424629,123.025757 
	C40.217369,123.346977 45.586758,123.658325 51.423653,123.979156 
	C55.941784,123.983131 59.992405,123.977623 64.482468,123.967072 
	C67.267532,123.961807 69.613174,123.961578 72.148323,124.074638 
	C72.582115,124.356667 72.791786,124.560928 72.966850,124.800697 
z"/>
<path fill="#2F628F" opacity="1.000000" stroke="none" 
	d="
M17.009869,123.036659 
	C17.010418,123.421867 17.010965,123.807083 17.012592,124.481155 
	C8.215218,125.325592 5.931714,124.163902 3.116059,117.320282 
	C3.609878,115.158089 4.072036,113.359406 4.992842,111.570755 
	C5.959282,113.595818 6.226490,115.717567 7.056765,117.589577 
	C7.641181,118.907242 8.991094,119.885384 10.268951,121.252319 
	C12.695755,122.005219 14.852812,122.520935 17.009869,123.036659 
z"/>
<path fill="#1864A0" opacity="1.000000" stroke="none" 
	d="
M9.999207,121.015129 
	C8.991094,119.885384 7.641181,118.907242 7.056765,117.589577 
	C6.226490,115.717567 5.959282,113.595818 5.213398,111.292183 
	C4.977765,105.625809 4.980224,100.248024 4.974191,94.435364 
	C5.488884,92.809135 6.012069,91.617790 6.940149,90.510826 
	C11.755629,100.427551 10.499424,110.754318 9.999207,121.015129 
z"/>
<path fill="#000000" opacity="1.000000" stroke="none" 
	d="
M312.934723,25.986588 
	C319.354401,28.521994 326.353699,30.151115 332.060577,33.801056 
	C341.059998,39.556847 346.369690,48.836090 347.531464,59.261501 
	C348.897675,71.521065 349.231628,84.193069 341.799927,95.168091 
	C335.912384,103.862755 328.313263,110.475571 317.442505,112.237755 
	C314.382507,112.733788 311.325653,113.248932 307.614838,114.056625 
	C299.289185,114.218033 291.616028,114.078133 283.942871,113.938232 
	C283.942871,113.938232 283.950897,114.052071 283.989258,113.593864 
	C283.967499,97.081398 283.907379,81.027138 283.907227,64.509346 
	C283.967255,51.483696 283.967255,38.921577 283.967255,25.992716 
	C291.672516,25.992716 298.780975,25.993214 305.889435,25.992434 
	C308.237854,25.992176 310.586304,25.988630 312.934723,25.986588 
z"/>
<path fill="#AAABAC" opacity="1.000000" stroke="none" 
	d="
M312.556854,25.837452 
	C310.586304,25.988630 308.237854,25.992176 305.889435,25.992434 
	C298.780975,25.993214 291.672516,25.992716 283.967255,25.992716 
	C283.967255,38.921577 283.967255,51.483696 283.733215,64.512268 
	C283.499207,64.978714 283.151276,64.967300 283.151276,64.967300 
	C283.151276,51.853306 283.151276,38.739311 283.151276,25.688316 
	C293.034241,25.688316 302.606598,25.688316 312.556854,25.837452 
z"/>
<path fill="#929394" opacity="1.000000" stroke="none" 
	d="
M283.076416,65.432877 
	C283.151276,64.967300 283.499207,64.978714 283.673218,64.975800 
	C283.907379,81.027138 283.967499,97.081398 284.046326,113.592712 
	C283.706116,112.734756 283.041351,111.421188 283.035126,110.104500 
	C282.965393,95.369431 282.997131,80.633881 283.076416,65.432877 
z"/>
<path fill="#929394" opacity="1.000000" stroke="none" 
	d="
M284.185150,114.293259 
	C291.616028,114.078133 299.289185,114.218033 307.416992,114.297478 
	C300.056915,114.374107 292.242188,114.511192 284.185150,114.293259 
z"/>
<path fill="#000000" opacity="1.000000" stroke="none" 
	d="
M592.973633,69.711746 
	C598.158936,60.049934 612.486511,56.953548 620.853394,61.842613 
	C624.702942,64.092018 627.046082,69.150208 629.543518,73.256325 
	C629.960449,73.941833 627.706177,77.610786 626.621582,77.641815 
	C615.054138,77.972755 603.472595,77.903214 591.899658,77.688568 
	C591.306213,77.677559 590.148987,75.247253 590.335449,74.122665 
	C590.580566,72.644325 591.899231,71.343987 592.973633,69.711746 
z"/>
<path fill="#1864A0" opacity="1.000000" stroke="none" 
	d="
M71.958809,123.961357 
	C69.613174,123.961578 67.267532,123.961807 64.142937,123.734161 
	C59.228031,123.660744 55.092091,123.815208 50.956146,123.969673 
	C45.586758,123.658325 40.217369,123.346977 34.460320,122.635994 
	C35.661606,121.469315 37.183197,120.268951 38.851067,120.009720 
	C46.341537,118.845505 47.368374,117.809616 48.040565,111.026711 
	C48.342762,107.977310 49.308575,104.993660 49.982418,101.985901 
	C49.991566,101.991631 49.982815,101.977074 50.335564,101.924751 
	C53.175045,101.049629 55.112679,99.969734 52.979275,96.653130 
	C52.988049,95.883575 52.995155,95.443848 53.319717,94.904572 
	C53.422077,93.535233 53.206985,92.265457 52.983429,90.668976 
	C52.969292,89.906578 52.963623,89.470871 53.205700,88.809814 
	C55.181404,84.062744 54.346268,83.210129 47.600128,82.990967 
	C42.145733,82.660049 37.084831,82.348526 31.758648,81.808357 
	C26.763491,81.670586 25.025845,85.340523 27.025257,91.347137 
	C27.019560,92.116165 27.013353,92.555588 26.671349,93.107834 
	C23.919954,96.005089 24.660488,97.879745 28.166161,99.283798 
	C28.899843,100.702011 29.470127,101.840851 29.785889,103.213593 
	C28.074533,104.504723 26.617699,105.561966 25.160866,106.619209 
	C24.445599,105.044540 23.449821,103.532707 23.079811,101.880707 
	C22.503017,99.305481 22.729250,96.507996 21.901451,94.044533 
	C21.214338,91.999741 19.776037,90.004967 18.182257,88.507797 
	C14.426259,84.979492 10.718937,88.595833 6.976349,89.009010 
	C7.939870,86.240158 8.477840,83.217873 9.947389,80.750389 
	C14.209970,73.593193 19.380116,67.231400 26.415989,62.407326 
	C28.253843,61.147217 28.813763,58.023251 29.986187,55.374229 
	C32.271370,53.489826 34.452602,51.845135 36.818466,50.533459 
	C38.364124,49.676514 40.177589,49.302601 42.357468,49.209194 
	C37.278755,57.483974 35.940109,65.651749 41.231171,73.668663 
	C42.319607,75.317841 45.800232,75.388199 48.178242,76.186279 
	C48.415718,75.410187 48.653198,74.634087 48.890675,73.857994 
	C46.777725,73.109634 44.664776,72.361267 42.551826,71.612900 
	C42.567192,71.236496 42.582554,70.860092 42.597919,70.483696 
	C47.534447,70.136948 52.470974,69.790199 57.407501,69.443451 
	C57.459778,68.833488 57.512054,68.223526 57.564327,67.613556 
	C55.658001,67.078430 53.699562,66.677414 51.862671,65.963608 
	C50.515991,65.440292 49.328789,64.506577 48.461411,63.361076 
	C53.814110,62.644928 58.775066,62.061501 63.737858,62.045494 
	C91.369705,61.956371 119.002266,62.059357 146.633728,61.922764 
	C149.430573,61.908939 152.221649,60.734020 154.488800,60.217827 
	C152.379654,53.329365 150.098480,47.921173 149.171051,42.290028 
	C148.195114,36.364468 144.442795,32.548100 140.770813,28.653320 
	C138.335266,26.069996 135.284775,23.738773 132.059418,22.313160 
	C128.280350,20.642815 124.012733,20.077791 119.957031,19.033316 
	C128.787872,17.579615 137.618729,16.125912 146.840683,14.607825 
	C150.729706,18.426332 154.993652,22.612984 159.573883,26.888924 
	C162.055649,34.203300 163.969345,41.516880 166.467392,48.625099 
	C168.419403,54.179531 170.662949,59.730762 173.606018,64.802299 
	C175.527313,68.113098 178.931656,70.563278 181.759521,74.051605 
	C180.389526,75.480347 178.813538,76.096863 177.500687,77.068779 
	C175.367630,78.647881 173.289322,80.355133 171.540207,82.321648 
	C171.347824,82.537926 173.494263,84.778633 174.487274,86.130836 
	C174.922104,86.722939 175.184067,87.441978 175.801178,88.640793 
	C173.822983,88.784393 172.409378,88.887009 170.974503,88.627075 
	C169.160873,86.239357 167.652573,83.827354 165.522003,82.262733 
	C159.524857,77.858635 148.800888,81.692505 147.369919,88.843796 
	C146.651794,92.432625 147.107437,96.256317 146.797241,100.228745 
	C145.881088,101.784256 145.396896,103.246033 144.486053,104.358490 
	C139.597000,110.329689 139.654877,112.392998 145.877502,116.817032 
	C148.351334,118.575821 149.031128,120.342735 147.991623,123.005188 
	C142.296768,123.077377 136.602097,123.174545 130.907013,123.212975 
	C127.101524,123.238663 123.291840,123.069412 119.490738,123.193230 
	C116.031868,123.305893 112.584221,123.887947 109.127808,123.927345 
	C99.740303,124.034332 90.350769,123.963280 80.188599,123.741982 
	C76.929703,123.667885 74.444260,123.814621 71.958809,123.961357 
z"/>
<path fill="#2E6390" opacity="1.000000" stroke="none" 
	d="
M119.570297,19.104187 
	C124.012733,20.077791 128.280350,20.642815 132.059418,22.313160 
	C135.284775,23.738773 138.335266,26.069996 140.770813,28.653320 
	C144.442795,32.548100 148.195114,36.364468 149.171051,42.290028 
	C150.098480,47.921173 152.379654,53.329365 154.488800,60.217827 
	C152.221649,60.734020 149.430573,61.908939 146.633728,61.922764 
	C119.002266,62.059357 91.369705,61.956371 63.737858,62.045494 
	C58.775066,62.061501 53.814110,62.644928 48.425522,62.974648 
	C45.940395,61.473057 43.882057,59.963196 41.754517,58.402569 
	C46.541718,53.010155 48.142143,47.151123 50.017902,40.986439 
	C51.621460,35.716370 56.423889,30.758450 61.001835,27.189373 
	C71.185501,19.249928 83.739471,19.295740 95.959244,19.050945 
	C103.696747,18.895941 111.441856,19.120649 119.570297,19.104187 
M150.554382,58.160862 
	C148.992371,52.847763 147.663803,47.451382 145.805923,42.243839 
	C143.745255,36.467930 140.857162,31.291492 134.860336,28.353161 
	C125.423279,23.729183 115.294182,22.006359 105.091759,22.158262 
	C94.412277,22.317266 83.658028,23.463831 73.121811,25.263746 
	C65.224892,26.612785 58.052349,30.399561 54.869446,38.651512 
	C52.313026,45.279236 50.160126,52.062603 47.700447,59.144653 
	C55.460011,59.144653 62.715782,59.144653 70.515747,59.807358 
	C96.829781,59.865135 123.143822,59.929127 149.457855,59.931671 
	C149.935730,59.931717 150.413681,59.198086 150.554382,58.160862 
z"/>
<path fill="#1864A0" opacity="1.000000" stroke="none" 
	d="
M36.297775,41.174316 
	C36.797108,38.461494 37.593609,35.922470 38.685883,33.187340 
	C40.065807,34.179096 41.763988,35.220657 42.090057,36.589149 
	C42.577827,38.636337 42.100620,40.913445 42.033867,43.092754 
	C40.220894,42.511208 38.407917,41.929661 36.297775,41.174316 
z"/>
<path fill="#16619D" opacity="1.000000" stroke="none" 
	d="
M148.370117,123.012939 
	C149.031128,120.342735 148.351334,118.575821 145.877502,116.817032 
	C139.654877,112.392998 139.597000,110.329689 144.486053,104.358490 
	C145.396896,103.246033 145.881088,101.784256 147.087677,100.405670 
	C154.956085,106.848557 163.971237,107.418777 168.747971,100.674774 
	C170.835464,97.727577 170.325958,92.940941 170.995789,88.989624 
	C172.409378,88.887009 173.822983,88.784393 175.801178,88.640793 
	C175.184067,87.441978 174.922104,86.722939 174.487274,86.130836 
	C173.494263,84.778633 171.347824,82.537926 171.540207,82.321648 
	C173.289322,80.355133 175.367630,78.647881 177.500687,77.068779 
	C178.813538,76.096863 180.389526,75.480347 181.928619,74.340225 
	C193.462189,85.361092 193.762466,99.637955 191.608521,114.110588 
	C191.143295,117.236519 186.955185,119.808380 183.792068,122.834305 
	C180.391052,123.342857 177.679886,123.652573 174.968719,123.962296 
	C167.616989,123.662384 160.265244,123.362480 152.206207,123.063629 
	C151.498901,123.064682 151.018387,123.078430 151.018387,123.078430 
	C150.261795,123.059189 149.505203,123.039948 148.370117,123.012939 
z"/>
<path fill="#2F628F" opacity="1.000000" stroke="none" 
	d="
M72.148323,124.074638 
	C74.444260,123.814621 76.929703,123.667885 79.729050,123.746880 
	C79.219063,124.125168 78.395172,124.277725 77.316277,124.615082 
	C75.967728,124.839897 74.874191,124.879921 73.373749,124.860321 
	C72.791786,124.560928 72.582115,124.356667 72.148323,124.074638 
z"/>
<path fill="#2F628F" opacity="1.000000" stroke="none" 
	d="
M175.407913,123.972382 
	C177.679886,123.652573 180.391052,123.342857 183.534393,123.050354 
	C181.260086,123.372536 178.553604,123.677513 175.407913,123.972382 
z"/>
<path fill="#2F628F" opacity="1.000000" stroke="none" 
	d="
M151.121307,123.182770 
	C151.018387,123.078430 151.498901,123.064682 151.738358,123.077194 
	C151.977814,123.089706 151.633118,123.342323 151.633118,123.342323 
	C151.633118,123.342323 151.224213,123.287117 151.121307,123.182770 
z"/>
<path fill="#1A629C" opacity="1.000000" stroke="none" 
	d="
M747.108276,116.355179 
	C746.017090,116.780663 745.082520,116.897736 743.811890,117.113190 
	C740.909912,117.885040 739.691833,119.428185 740.906433,121.985519 
	C743.069458,126.539757 741.414917,128.582275 736.883911,130.241531 
	C729.501526,132.944962 725.116516,130.692780 724.007996,123.006935 
	C723.713623,120.965744 722.639221,119.037056 721.544861,117.011986 
	C720.972168,116.932404 720.777588,116.897552 720.300354,116.773186 
	C718.253784,116.127960 716.486389,115.080849 714.726501,115.093254 
	C698.797241,115.205605 682.869507,115.560776 666.940430,115.625748 
	C665.799011,115.630402 663.836182,114.054932 663.641724,112.966507 
	C662.618958,107.241104 661.934753,101.402878 665.699341,96.235939 
	C669.871094,90.510338 674.168396,84.875565 678.299194,79.120911 
	C681.516846,74.638397 684.525085,70.006134 687.697632,65.490448 
	C690.151917,61.997070 692.716553,58.581169 695.691284,55.345779 
	C697.567078,55.422974 699.404846,55.793842 700.312622,55.041916 
	C702.224792,53.458111 703.649597,51.285847 706.242920,48.204113 
	C706.969910,52.282314 707.455994,55.009415 707.885498,57.418800 
	C712.435181,52.821503 716.720093,48.491787 721.159668,44.005733 
	C723.005615,46.295624 724.454285,48.092758 726.824707,51.033298 
	C727.420837,48.004089 727.450500,46.356800 728.093628,45.000267 
	C728.756592,43.601582 730.016785,42.485950 731.015686,41.246498 
	C731.675537,42.565853 732.758484,43.839153 732.908081,45.214012 
	C733.229858,48.170620 732.528015,51.330757 733.302979,54.112934 
	C733.804565,55.913559 736.177917,57.192780 737.712524,58.705643 
	C738.473389,57.073727 739.631836,55.501747 739.889221,53.793964 
	C740.176453,51.888218 739.530884,49.861404 739.490967,47.883263 
	C739.357483,41.261288 739.355713,34.636589 739.212708,28.014896 
	C739.158936,25.520834 738.857178,23.032124 738.668457,20.540972 
	C738.253479,20.468328 737.838501,20.395685 737.423462,20.323042 
	C738.626526,19.209410 739.829529,18.095779 741.032593,16.982206 
	C741.352478,18.573935 741.946350,20.164846 741.950745,21.757395 
	C742.008972,42.726974 741.977356,63.696796 741.986511,84.666550 
	C741.988159,88.340019 742.073914,92.013458 742.455750,95.834915 
	C742.932678,96.287231 743.133728,96.545593 743.628845,96.824867 
	C746.421936,97.795685 748.925537,98.957497 751.557190,99.512871 
	C753.309387,99.882652 755.244202,99.387161 757.807068,99.237495 
	C757.206543,101.316231 756.295471,102.684914 756.614075,103.645927 
	C759.522888,112.421051 753.512939,114.289337 747.108276,116.355179 
M688.332336,97.798546 
	C688.703247,98.114708 689.066406,98.697289 689.446106,98.708206 
	C699.886353,99.008430 710.327881,99.285507 720.770996,99.421265 
	C721.447876,99.430069 722.438110,98.405113 722.766541,97.639648 
	C723.611694,95.669792 724.757935,93.570602 724.741150,91.531677 
	C724.636230,78.775215 724.320801,66.018150 723.818726,53.271397 
	C723.774902,52.158772 721.883301,51.118931 720.236145,50.316090 
	C709.785828,64.874908 699.335510,79.433731 688.455444,94.509224 
	C688.321472,95.364738 688.187439,96.220261 688.332336,97.798546 
z"/>
<path fill="#1764A1" opacity="1.000000" stroke="none" 
	d="
M740.989136,16.583839 
	C739.829529,18.095779 738.626526,19.209410 737.423462,20.323042 
	C737.838501,20.395685 738.253479,20.468328 738.668457,20.540972 
	C738.857178,23.032124 739.158936,25.520834 739.212708,28.014896 
	C739.355713,34.636589 739.357483,41.261288 739.490967,47.883263 
	C739.530884,49.861404 740.176453,51.888218 739.889221,53.793964 
	C739.631836,55.501747 738.473389,57.073727 737.712524,58.705643 
	C736.177917,57.192780 733.804565,55.913559 733.302979,54.112934 
	C732.528015,51.330757 733.229858,48.170620 732.908081,45.214012 
	C732.758484,43.839153 731.675537,42.565853 731.015686,41.246498 
	C730.016785,42.485950 728.756592,43.601582 728.093628,45.000267 
	C727.450500,46.356800 727.420837,48.004089 726.824707,51.033298 
	C724.454285,48.092758 723.005615,46.295624 721.159668,44.005733 
	C716.720093,48.491787 712.435181,52.821503 707.885498,57.418800 
	C707.455994,55.009415 706.969910,52.282314 706.242920,48.204113 
	C703.649597,51.285847 702.224792,53.458111 700.312622,55.041916 
	C699.404846,55.793842 697.567078,55.422974 696.031128,55.226639 
	C696.416321,53.713749 696.921021,52.534969 698.064209,51.111122 
	C702.046631,49.761662 703.490967,47.475132 702.989380,43.977646 
	C703.493347,43.107975 703.997314,42.238312 705.145508,41.178192 
	C707.641296,40.892326 709.492981,40.796921 712.384888,40.647923 
	C710.807068,38.490723 709.889893,37.236713 708.972656,35.982700 
	C710.949890,33.059258 712.940308,30.144642 714.901062,27.210178 
	C717.473999,23.359552 720.023560,19.493294 722.743225,15.346741 
	C727.471924,14.706963 732.038757,14.157383 736.610107,14.116989 
	C738.049072,14.104274 739.500122,15.457489 740.989136,16.583839 
z"/>
<path fill="#1A629C" opacity="1.000000" stroke="none" 
	d="
M708.664185,36.134548 
	C709.889893,37.236713 710.807068,38.490723 712.384888,40.647923 
	C709.492981,40.796921 707.641296,40.892326 705.371155,40.978706 
	C706.086975,39.408585 707.221313,37.847485 708.664185,36.134548 
z"/>
<path fill="#1A629C" opacity="1.000000" stroke="none" 
	d="
M702.700317,44.148560 
	C703.490967,47.475132 702.046631,49.761662 698.346985,50.931877 
	C699.464600,48.771618 700.937927,46.545544 702.700317,44.148560 
z"/>
<path fill="#19629D" opacity="1.000000" stroke="none" 
	d="
M6.974478,89.244186 
	C10.718937,88.595833 14.426259,84.979492 18.182257,88.507797 
	C19.776037,90.004967 21.214338,91.999741 21.901451,94.044533 
	C22.729250,96.507996 22.503017,99.305481 23.079811,101.880707 
	C23.449821,103.532707 24.445599,105.044540 25.160866,106.619209 
	C26.617699,105.561966 28.074533,104.504723 30.162870,103.283661 
	C37.411762,106.516663 43.749374,105.205246 49.973270,101.980179 
	C49.308575,104.993660 48.342762,107.977310 48.040565,111.026711 
	C47.368374,117.809616 46.341537,118.845505 38.851067,120.009720 
	C37.183197,120.268951 35.661606,121.469315 34.036972,122.626129 
	C28.648422,123.016197 23.295567,123.016510 17.476290,123.026741 
	C14.852812,122.520935 12.695755,122.005219 10.268952,121.252319 
	C10.499424,110.754318 11.755629,100.427551 7.157475,90.272476 
	C6.969904,89.949730 6.972607,89.479370 6.974478,89.244186 
z"/>
<path fill="#2F628F" opacity="1.000000" stroke="none" 
	d="
M51.423653,123.979156 
	C55.092091,123.815208 59.228031,123.660744 63.703503,123.739197 
	C59.992405,123.977623 55.941784,123.983131 51.423653,123.979156 
z"/>
<path fill="#2F6593" opacity="1.000000" stroke="none" 
	d="
M170.974518,88.627075 
	C170.325958,92.940941 170.835464,97.727577 168.747971,100.674774 
	C163.971237,107.418777 154.956085,106.848557 147.322723,100.150726 
	C147.107437,96.256317 146.651794,92.432625 147.369919,88.843796 
	C148.800888,81.692505 159.524857,77.858635 165.522003,82.262733 
	C167.652573,83.827354 169.160873,86.239357 170.974518,88.627075 
M149.927444,96.451004 
	C151.426086,101.026176 156.205200,103.820152 160.534088,102.644028 
	C167.634735,100.714844 169.173615,95.618568 168.407654,91.117928 
	C167.475632,85.641571 162.149628,82.786057 156.294403,84.036278 
	C151.358200,85.090263 148.537567,89.940407 149.927444,96.451004 
z"/>
<path fill="#356792" opacity="1.000000" stroke="none" 
	d="
M49.982418,101.985901 
	C43.749374,105.205246 37.411762,106.516663 30.417393,103.049774 
	C29.470127,101.840851 28.899843,100.702011 28.106285,98.907608 
	C27.591055,96.499702 27.299101,94.747360 27.007147,92.995010 
	C27.013353,92.555588 27.019560,92.116165 27.273968,91.102783 
	C29.022758,87.698212 30.523344,84.867599 32.023930,82.036995 
	C37.084831,82.348526 42.145733,82.660049 47.687035,83.317825 
	C49.764271,85.454437 51.361115,87.244804 52.957954,89.035172 
	C52.963623,89.470871 52.969292,89.906578 52.980412,91.069916 
	C52.991329,92.866409 52.996799,93.935265 53.002266,95.004128 
	C52.995155,95.443848 52.988049,95.883575 52.756210,96.890427 
	C51.681923,98.964058 50.832367,100.470566 49.982811,101.977074 
	C49.982815,101.977074 49.991566,101.991631 49.982418,101.985901 
M31.511786,98.818062 
	C34.090889,103.198669 38.309143,104.884743 42.975208,102.889297 
	C47.819611,100.817596 49.042435,96.639687 49.033112,91.633446 
	C49.024967,87.259193 46.643589,84.980499 42.949245,84.724831 
	C39.780167,84.505531 35.733932,84.728775 33.470432,86.519455 
	C30.063492,89.214706 29.343204,93.707619 31.511786,98.818062 
z"/>
<path fill="#19629D" opacity="1.000000" stroke="none" 
	d="
M31.758648,81.808357 
	C30.523344,84.867599 29.022758,87.698212 27.273460,90.773178 
	C25.025845,85.340523 26.763491,81.670586 31.758648,81.808357 
z"/>
<path fill="#1A629C" opacity="1.000000" stroke="none" 
	d="
M53.205700,88.809814 
	C51.361115,87.244804 49.764271,85.454437 48.080524,83.337219 
	C54.346268,83.210129 55.181404,84.062744 53.205700,88.809814 
z"/>
<path fill="#19629D" opacity="1.000000" stroke="none" 
	d="
M26.671349,93.107834 
	C27.299101,94.747360 27.591055,96.499702 27.942886,98.628250 
	C24.660488,97.879745 23.919954,96.005089 26.671349,93.107834 
z"/>
<path fill="#19629D" opacity="1.000000" stroke="none" 
	d="
M50.335564,101.924751 
	C50.832367,100.470566 51.681923,98.964058 52.754547,97.220261 
	C55.112679,99.969734 53.175045,101.049629 50.335564,101.924751 
z"/>
<path fill="#19629D" opacity="1.000000" stroke="none" 
	d="
M53.319717,94.904572 
	C52.996799,93.935265 52.991329,92.866409 52.988876,91.396606 
	C53.206985,92.265457 53.422077,93.535233 53.319717,94.904572 
z"/>
<path fill="#000000" opacity="1.000000" stroke="none" 
	d="
M69.971558,59.144653 
	C62.715782,59.144653 55.460011,59.144653 47.700447,59.144653 
	C50.160126,52.062603 52.313026,45.279236 54.869446,38.651512 
	C58.052349,30.399561 65.224892,26.612785 73.121811,25.263746 
	C83.658028,23.463831 94.412277,22.317266 105.091759,22.158262 
	C115.294182,22.006359 125.423279,23.729183 134.860336,28.353161 
	C140.857162,31.291492 143.745255,36.467930 145.805923,42.243839 
	C147.663803,47.451382 148.992371,52.847763 150.266953,58.569256 
	C123.310204,59.033318 96.640877,59.088985 69.971558,59.144653 
z"/>
<path fill="#A8C4DC" opacity="1.000000" stroke="none" 
	d="
M70.243652,59.476006 
	C96.640877,59.088985 123.310204,59.033318 150.435547,58.892216 
	C150.413681,59.198086 149.935730,59.931717 149.457855,59.931671 
	C123.143822,59.929127 96.829781,59.865135 70.243652,59.476006 
z"/>
<path fill="#000000" opacity="1.000000" stroke="none" 
	d="
M688.885193,93.992546 
	C699.335510,79.433731 709.785828,64.874908 720.581970,50.641670 
	C721.002136,55.320801 721.076477,59.674351 721.082947,64.493637 
	C721.015320,73.563400 721.072632,82.168114 720.967957,90.770851 
	C720.947021,92.489105 720.307861,94.199829 719.490967,95.969398 
	C710.152283,96.015099 701.275024,96.079651 692.402405,95.907104 
	C691.218079,95.884079 690.057007,94.660271 688.885193,93.992546 
z"/>
<path fill="#2C618D" opacity="1.000000" stroke="none" 
	d="
M721.150879,64.027901 
	C721.076477,59.674351 721.002136,55.320801 720.888916,50.506271 
	C721.883301,51.118931 723.774902,52.158772 723.818726,53.271397 
	C724.320801,66.018150 724.636230,78.775215 724.741150,91.531677 
	C724.757935,93.570602 723.611694,95.669792 722.766541,97.639648 
	C722.438110,98.405113 721.447876,99.430069 720.770996,99.421265 
	C710.327881,99.285507 699.886353,99.008430 689.446106,98.708206 
	C689.066406,98.697289 688.703247,98.114708 688.655029,97.430794 
	C699.296570,96.972260 709.615417,96.881477 720.333252,96.760506 
	C721.153625,93.062698 721.933228,89.393860 721.920776,85.727715 
	C721.896179,78.493652 721.432800,71.261086 721.150879,64.027901 
z"/>
<path fill="#A8C4DC" opacity="1.000000" stroke="none" 
	d="
M719.934326,96.790695 
	C709.615417,96.881477 699.296570,96.972260 688.515564,97.069412 
	C688.187439,96.220261 688.321472,95.364738 688.670288,94.250885 
	C690.057007,94.660271 691.218079,95.884079 692.402405,95.907104 
	C701.275024,96.079651 710.152283,96.015099 719.471069,96.188095 
	C719.914001,96.351410 719.934326,96.790703 719.934326,96.790695 
z"/>
<path fill="#000000" opacity="1.000000" stroke="none" 
	d="
M149.691727,96.123001 
	C148.537567,89.940407 151.358200,85.090263 156.294403,84.036278 
	C162.149628,82.786057 167.475632,85.641571 168.407654,91.117928 
	C169.173615,95.618568 167.634735,100.714844 160.534088,102.644028 
	C156.205200,103.820152 151.426086,101.026176 149.691727,96.123001 
z"/>
<path fill="#000000" opacity="1.000000" stroke="none" 
	d="
M31.356625,98.456039 
	C29.343204,93.707619 30.063492,89.214706 33.470432,86.519455 
	C35.733932,84.728775 39.780167,84.505531 42.949245,84.724831 
	C46.643589,84.980499 49.024967,87.259193 49.033112,91.633446 
	C49.042435,96.639687 47.819611,100.817596 42.975208,102.889297 
	C38.309143,104.884743 34.090889,103.198669 31.356625,98.456039 
z"/>
<path fill="#8BAECC" opacity="1.000000" stroke="none" 
	d="
M720.333252,96.760513 
	C719.934326,96.790703 719.914001,96.351410 719.933899,96.132721 
	C720.307861,94.199829 720.947021,92.489105 720.967957,90.770851 
	C721.072632,82.168114 721.015320,73.563400 721.082947,64.493637 
	C721.432800,71.261086 721.896179,78.493652 721.920776,85.727715 
	C721.933228,89.393860 721.153625,93.062698 720.333252,96.760513 
z"/>
</svg>